<?xml version="1.0" standalone="no"?><svg xmlns="http://www.w3.org/2000/svg" viewBox="0 0 1440 320"><path fill="#000b76" fill-opacity="1" d="M0,288L34.3,272C68.6,256,137,224,206,197.3C274.3,171,343,149,411,154.7C480,160,549,192,617,213.3C685.7,235,754,245,823,245.3C891.4,245,960,235,1029,213.3C1097.1,192,1166,160,1234,138.7C1302.9,117,1371,107,1406,101.3L1440,96L1440,320L1405.7,320C1371.4,320,1303,320,1234,320C1165.7,320,1097,320,1029,320C960,320,891,320,823,320C754.3,320,686,320,617,320C548.6,320,480,320,411,320C342.9,320,274,320,206,320C137.1,320,69,320,34,320L0,320Z"></path></svg>